# xmcd CD database file
#
# Track frame offsets:
#	182
#	14455
#	28435
#	40590
#	54052
#	66245
#	78190
#	104862
#	119325
#	132875
#	147257
#	160447
#	175207
#	190027
#	202177
#
# Disc length: 2870 seconds
#
# Revision: 1
# Processed by: cddbd v1.4PL0 Copyright (c) Steve Scherf et al.
# Submitted via: CDex 1.50Beta7
#
DISCID=d60b340f
DTITLE=Woody Herman and His Orchestra - Blues on Parade
DYEAR=1995
DGENRE=Jazz
TTITLE0=Fur Trapper's Ball 
TTITLE1=Pick-A-Rib 
TTITLE2=Big Wig In The Wigwam
TTITLE3=Laughing Boy Blues
TTITLE4=Sheik Of Araby
TTITLE5=I'm Comin', Virginia
TTITLE6=Blues Upstairs And Downstairs
TTITLE7=Blues On Parade
TTITLE8=Fan It
TTITLE9=Casbah Blues
TTITLE10=South
TTITLE11=On The Isle Of May
TTITLE12=Peach Tree Street
TTITLE13=Boogie Woogie Bugle Boy 
TTITLE14=Blue Ink
EXTD=YEAR: 1995
EXTT0=
EXTT1=
EXTT2=
EXTT3=
EXTT4=
EXTT5=
EXTT6=
EXTT7=
EXTT8=
EXTT9=
EXTT10=
EXTT11=
EXTT12=
EXTT13=
EXTT14=
PLAYORDER=
